HIERARCHY
ROOT hip
{
	OFFSET 0.000000 0.000000 0.000000
	CHANNELS 6 Xposition Yposition Zposition Xrotation Zrotation Yrotation 
	JOINT abdomen
	{
		OFFSET 0.000000 3.422050 0.000000
		CHANNELS 3 Xrotation Zrotation Yrotation 
		JOINT chest
		{
			OFFSET 0.000000 8.486693 -0.684411
			CHANNELS 3 Xrotation Zrotation Yrotation 
			JOINT neck
			{
				OFFSET 0.000000 10.266162 -0.273764
				CHANNELS 3 Xrotation Zrotation Yrotation 
				JOINT head
				{
					OFFSET 0.000000 3.148285 0.000000
					CHANNELS 3 Xrotation Zrotation Yrotation 
					End Site
					{
						OFFSET 0.000000 3.148289 0.000000
					}
				}
			}
			JOINT lCollar
			{
				OFFSET 3.422053 6.707223 -0.821293
				CHANNELS 3 Yrotation Zrotation Xrotation 
				JOINT lShldr
				{
					OFFSET 3.285171 0.000000 0.000000
					CHANNELS 3 Zrotation Yrotation Xrotation 
					JOINT lForeArm
					{
						OFFSET 10.129278 0.000000 0.000000
						CHANNELS 3 Yrotation Zrotation Xrotation 
						JOINT lHand
						{
							OFFSET 8.486692 0.000000 0.000000
							CHANNELS 3 Zrotation Yrotation Xrotation 
							End Site
							{
								OFFSET 4.106464 0.000000 0.000000
							}
						}
					}
				}
			}
			JOINT rCollar
			{
				OFFSET -3.558935 6.707223 -0.821293
				CHANNELS 3 Yrotation Zrotation Xrotation 
				JOINT rShldr
				{
					OFFSET -3.148289 0.000000 0.000000
					CHANNELS 3 Zrotation Yrotation Xrotation 
					JOINT rForeArm
					{
						OFFSET -10.266159 0.000000 0.000000
						CHANNELS 3 Yrotation Zrotation Xrotation 
						JOINT rHand
						{
							OFFSET -8.349810 0.000000 0.000000
							CHANNELS 3 Zrotation Yrotation Xrotation 
							End Site
							{
								OFFSET -4.106464 0.000000 0.000000
							}
						}
					}
				}
			}
		}
	}
	JOINT lThigh
	{
		OFFSET 5.338403 -1.642589 1.368821
		CHANNELS 3 Xrotation Zrotation Yrotation 
		JOINT lShin
		{
			OFFSET -2.053232 -20.121670 0.000000
			CHANNELS 3 Xrotation Zrotation Yrotation 
			JOINT lFoot
			{
				OFFSET 0.000000 -19.300380 -1.231939
				CHANNELS 3 Xrotation Yrotation Zrotation 
				End Site
				{
					OFFSET 0.000000 -2.463878 4.653993
				}
			}
		}
	}
	JOINT rThigh
	{
		OFFSET -5.338403 -1.642589 1.368821
		CHANNELS 3 Xrotation Zrotation Yrotation 
		JOINT rShin
		{
			OFFSET 2.053232 -20.121670 0.000000
			CHANNELS 3 Xrotation Zrotation Yrotation 
			JOINT rFoot
			{
				OFFSET 0.000000 -19.300380 -1.231939
				CHANNELS 3 Xrotation Yrotation Zrotation 
				End Site
				{
					OFFSET 0.000000 -2.463878 4.653993
				}
			}
		}
	}
}
MOTION
Frames: 11
Frame Time: 0.100000
0.000000 43.528500 0.000000 0.000000 0.000000 0.000000 0.000000 0.000000 0.000000 0.000000 0.000000 0.000000 0.000000 0.000000 0.000000 0.000000 0.000000 0.000000 0.000000 0.000000 0.000000 0.000000 0.000000 0.000000 0.000000 0.000000 0.000000 0.000000 0.000000 0.000000 0.000000 0.000000 0.000000 0.000000 0.000000 0.000000 0.000000 0.000000 0.000000 0.000000 0.000000 0.000000 0.000000 0.000000 0.000000 0.000000 0.000000 0.000000 0.000000 0.000000 0.000000 0.000000 0.000000 0.000000 0.000000 0.000000 0.000000 0.000000 0.000000 0.000000 
-0.844056 8.453831 5.487841 -90.005249 0.001749 90.001755 -7.512836 -2.243108 -1.305699 10.214176 4.649073 0.343689 -30.002987 8.996454 -0.002552 14.996143 21.998972 -0.002344 2.680154 -8.272752 -8.408604 -28.364801 -67.577545 -18.010515 -54.001751 -70.413994 -44.852810 -32.381393 -8.672329 4.568983 -15.590315 -10.991815 -16.080664 66.930321 51.828686 15.925556 81.182785 15.713872 -55.321304 43.561478 12.917063 -10.679759 -38.183117 8.967479 7.587257 48.254585 0.863390 -4.019192 40.623032 -3.817974 -1.241046 -35.485447 -22.296944 -0.826322 90.137772 61.436050 -8.535388 22.988161 9.195317 7.108091 
-1.106239 8.453831 5.371124 -90.005135 -1.279907 90.001678 -6.661697 -2.252066 -1.307990 7.403666 4.566423 0.311948 -29.625216 6.878381 0.034687 15.163824 22.713369 0.062184 2.541195 -8.386555 -7.205122 -28.514256 -67.236084 -17.799862 -51.835850 -70.079582 -42.816254 -32.381393 -8.672329 4.568983 -16.125748 -11.102652 -15.209761 67.551430 51.804527 16.459475 81.365067 15.878882 -55.368618 43.740307 12.873116 -10.359200 -39.249355 8.923375 7.551981 46.965050 0.672226 -4.028048 41.705719 -3.720361 -1.206798 -36.714775 -22.173157 -1.356961 88.579704 61.522930 -9.920405 23.670315 8.990365 6.415275 
-1.368423 8.453832 5.254408 -90.005020 -2.563502 90.001587 -5.809987 -2.260995 -1.310416 4.572564 4.481690 0.284123 -29.248636 4.750980 0.057844 15.333355 23.427933 0.129368 2.404453 -8.503387 -5.999873 -28.658432 -66.894325 -17.594364 -49.739902 -69.719582 -40.849861 -32.381390 -8.672329 4.568983 -16.660215 -11.221601 -14.338618 68.171860 51.776760 16.992699 81.547638 16.043760 -55.416500 43.918865 12.828188 -10.038806 -40.316532 8.878583 7.517510 45.673569 0.480612 -4.032603 42.789406 -3.622014 -1.174373 -37.946857 -22.059704 -1.891029 87.012962 61.591778 -11.314064 24.350058 8.777139 5.724844 
-1.630606 8.453832 5.137692 -90.004890 -3.848712 90.001503 -4.957799 -2.269892 -1.312976 1.724124 4.395149 0.260399 -28.872459 2.615800 0.066959 15.504809 24.142597 0.199267 2.270027 -8.623182 -4.793119 -28.797537 -66.552338 -17.393860 -47.715302 -69.335335 -38.955032 -32.381393 -8.672329 4.568983 -17.193510 -11.348626 -13.467448 68.791512 51.745453 17.525118 81.730507 16.208488 -55.464973 44.097141 12.782285 -9.718591 -41.384480 8.833127 7.483867 44.380447 0.288694 -4.032835 43.873894 -3.522981 -1.143794 -39.181278 -21.956741 -2.428151 85.439453 61.642445 -12.714459 25.027180 8.555704 5.036977 
-1.892790 8.453832 5.020976 -90.004761 -5.135217 90.001411 -4.105229 -2.278754 -1.315669 -1.138273 4.307094 0.240933 -28.495922 0.474433 0.062015 15.678261 24.857311 0.271945 2.138018 -8.745866 -3.585130 -28.931831 -66.210182 -17.198122 -45.762707 -68.928177 -37.132420 -32.381393 -8.672329 4.568983 -17.725428 -11.483692 -12.596465 69.410278 51.710564 18.056618 81.913689 16.373077 -55.514038 44.275127 12.735403 -9.398556 -42.453011 8.787027 7.451069 43.085983 0.096619 -4.028729 44.959000 -3.423317 -1.115082 -40.417599 -21.864414 -2.967938 83.861153 61.674770 -14.119614 25.701523 8.326149 4.351855 
-2.154974 8.453832 4.904259 -90.004631 -6.422702 90.001305 -3.252369 -2.287578 -1.318495 -4.011147 4.217844 0.225855 -28.118227 -1.671512 0.042936 15.853776 25.571981 0.347468 2.008522 -8.871363 -2.376173 -29.061445 -65.867790 -17.006952 -43.882046 -68.499397 -35.381962 -32.381393 -8.672328 4.568983 -18.255747 -11.626748 -11.725869 70.028053 51.672142 18.587097 82.097176 16.537521 -55.563694 44.452824 12.687556 -9.078718 -43.521927 8.740307 7.419134 41.790497 -0.095465 -4.020277 46.044525 -3.323074 -1.088254 -41.655365 -21.782831 -3.509994 82.280045 61.688705 -15.527544 26.372902 8.088560 3.669650 
-2.417157 8.453833 4.787543 -90.004509 -7.710836 90.001221 -2.399315 -2.296361 -1.321452 -6.890939 4.127723 0.215261 -27.738596 -3.820400 0.009592 16.031445 26.286562 0.425906 1.881630 -8.999592 -1.166517 -29.186632 -65.525246 -16.820158 -42.072762 -68.050323 -33.703091 -32.381393 -8.672329 4.568983 -18.784267 -11.777737 -10.855871 70.644691 51.630169 19.116423 82.280968 16.701815 -55.613945 44.630226 12.638741 -8.759084 -44.591057 8.692988 7.388077 40.494286 -0.287408 -4.007476 47.130283 -3.222304 -1.063327 -42.894123 -21.712088 -4.053921 80.698212 61.684219 -16.936201 27.041159 7.843030 2.990530 
-2.679341 8.453833 4.670827 -90.004372 -8.999298 90.001106 -1.546160 -2.305099 -1.324540 -9.774035 4.037071 0.209216 -27.356197 -5.970578 -0.038213 16.211338 27.000975 0.507328 1.757435 -9.130471 0.043570 -29.307516 -65.182487 -16.637545 -40.333683 -67.582123 -32.094650 -32.381393 -8.672329 4.568983 -19.310783 -11.936593 -9.986675 71.260101 51.584656 19.644497 82.465073 16.865948 -55.664791 44.807297 12.588957 -8.439661 -45.660210 8.645098 7.357921 39.197666 -0.479063 -3.990332 48.216099 -3.121064 -1.040315 -44.133430 -21.652266 -4.599313 79.117630 61.661289 -18.343559 27.706120 7.589660 2.314660 
-2.941524 8.453833 4.554111 -90.004242 -10.287764 90.001007 -0.693000 -2.313791 -1.327759 -12.656807 3.946231 0.207750 -26.970215 -8.120389 -0.100730 16.393541 27.715155 0.591811 1.636021 -9.263912 1.253820 -29.424301 -64.839607 -16.458981 -38.663414 -67.096138 -30.555220 -32.381393 -8.672329 4.568983 -19.835091 -12.103241 -9.118481 71.874176 51.535641 20.171204 82.649506 17.029932 -55.716240 44.984066 12.538215 -8.120461 -46.729202 8.596659 7.328676 37.900948 -0.670282 -3.968854 49.301769 -3.019406 -1.019231 -45.372841 -21.603424 -5.145766 77.540382 61.619965 -19.747585 28.367634 7.328554 1.642195 
-3.203708 8.453834 4.437394 -90.004105 -11.575899 90.000908 0.160072 -2.322433 -1.331106 -15.535614 3.855546 0.210857 -26.579775 -10.268168 -0.178280 16.578152 28.429039 0.679433 1.517471 -9.399821 2.463961 -29.537127 -64.496559 -16.284279 -37.060089 -66.593407 -29.082960 -32.381393 -8.672329 4.568983 -20.356997 -12.277601 -8.251491 72.486794 51.483120 20.696440 82.834229 17.193752 -55.768272 45.160496 12.486512 -7.801493 -47.797840 8.547697 7.300359 36.604435 -0.860915 -3.943060 50.387096 -2.917385 -1.000085 -46.611866 -21.565584 -5.692867 75.968414 61.560333 -21.146284 29.025537 7.059823 0.973293 
